# xmcd
#
# Track frame offsets:
#	225
#	15705
#	25712
#	35282
#	45227
#	63385
#	76850
#	86237
#	99072
#	111502
#	122880
#	138707
#	152922
#	167577
#	177747
#	190315
#	205665
#	219360
#	232015
#	244802
#
# Disc length: 3435 seconds
#
# Revision: 1
# Processed by: cddbd v1.5.1PL0 Copyright (c) Steve Scherf et al.
# Submitted via: CDex 1.50Beta5
#
DISCID=0f0d6814
DTITLE=Various Artist - WOMEN'S VOCAL BEST HIT'S 60 ORIJINAL COLLECTION
DYEAR=1995
DGENRE=Jazz -> Jazz Vocals
TTITLE0=ビリー・ホリディー/ビリー・ホリディー - I'M A FOOL TO WANT YOU「恋は愚かというけれど」
TTITLE1=ジュリー・ロンドン/ジュリー・ロンドン - BOY ON A DOLPHIN「イルカに乗った少年」
TTITLE2=ドリス・デイ/ドリス・デイ - QUE SERA SERA「ケ・セラ・セラ」
TTITLE3=ジェーン・クリスティー/ジェーン・クリスティー - SOFTLY,AS IN A MORNIG SUNRISE「朝日のようにさわやかに」
TTITLE4=サラ・ボーン/サラ・ボーン - LULLABY OF BIRDLAND「バードランドの子守歌」
TTITLE5=パティー・ペイジ/パティー・ペイジ - MOCKIN' BIRD HILL「モッキン・バード・ヒル」
TTITLE6=ダイアナ・ショア/ダイアナ・ショア - BUTTONS AND BOWS「ボタンとリボン」
TTITLE7=ジュリー・ロンドン/ジュリー・ロンドン - CRY ME A RIVER「クライ・ミー・ア・リバー」
TTITLE8=ドリス・デイ/ドリス・デイ - BEWITCHED「魅惑されて」
TTITLE9=ジョー・スタッフォード/ジョー・スタッフォード - ON LONDON BRIDGE「霧のロンドン・ブリッジ」
TTITLE10=ビリー・ホリディー/ビリー・ホリディー - GOOD MORNING HEARTACHE「グッド・モーニング・ハートエイク」
TTITLE11=アンドリュース・シスターズ/アンドリュース・シスターズ - MEANS THAT YOU'RE GRAND「すてきなあなた」
TTITLE12=アニタ・オディ/アニタ・オディ - HONEYSUCKLE ROSE「ハニー・サックル・ローズ」
TTITLE13=サラ・ボーン/サラ・ボーン - YESTERDAY「イエスタデイ」
TTITLE14=ジュリー・ロンドン/ジュリー・ロンドン - IN THE STILL OF THE NIGHT「夜の静けさ」
TTITLE15=ダイナ・ワシントン/ダイナ・ワシントン - SMOKE GETS IN YOUR EYES「煙が目にしみる」
TTITLE16=ビリー・ホリデイ/ビリー・ホリデイ - ALL OF ME 「オール・オブ・ミー」
TTITLE17=サラ・ボーン/サラ・ボーン - A LOVER'S CONCERTO「ラヴァース・コンチェルト」
TTITLE18=ダスティー・スプリングフィールド/ダスティー・スプリングフィールド - YOU DON'T HAVE TO SAY YOU LOVE ME 「この胸のときめきを」
TTITLE19=ディオンヌ・ワーウィック/ディオンヌ・ワーウィック - WALK ON BY「ウォーク・オン・パイ」
EXTD=
EXTT0=
EXTT1=
EXTT2=
EXTT3=
EXTT4=
EXTT5=
EXTT6=
EXTT7=
EXTT8=
EXTT9=
EXTT10=
EXTT11=
EXTT12=
EXTT13=
EXTT14=
EXTT15=
EXTT16=
EXTT17=
EXTT18=
EXTT19=
PLAYORDER=
